<svg xmlns="http://www.w3.org/2000/svg" width="486" height="140" viewBox="0 0 486 140" fill="none">
<path d="M0.600098 6.09985V130.7H125.2V6.09985H0.600098ZM121.7 127.2H4.2001V9.69985H121.6V127.2H121.7Z" fill="black"/>
<path d="M121.6 9.69995H4.2002V127.1H121.6V9.69995Z" fill="#FFF000"/>
<path fill-rule="evenodd" clip-rule="evenodd" d="M62.6999 83.4L100.2 120.8L114.9 106.1L77.3999 68.6L84.6999 61.3V46.7L89.8999 41.5V53.6L94.9999 58.6L113.3 40.3L118.2 45.2C118.2 42.1 117.3 31.2 108.6 22.7C98.7999 13.2 89.0999 18.7 85.6999 22.1L67.9999 39.9L72.3999 44.3L62.6999 54L52.9999 44.3L57.3999 39.9L39.6999 22.2C36.2999 18.8 26.5999 13.3 16.7999 22.8C8.0999 31.3 7.3999 42.1 7.3999 45.3L12.0999 40.4L30.3999 58.7L35.4999 53.6V41.6L40.6999 46.8V61.4L47.9999 68.7L10.7999 105.8L25.4999 120.4L62.6999 83.4Z" fill="black"/>
<path fill-rule="evenodd" clip-rule="evenodd" d="M159.4 16.3H160.7C165 16.3 169.9 17.1 169.9 22.7C169.9 28.2 165 29.1 160.7 29.1H159.4V16.3ZM172.5 36.3C179.7 35 183.7 28.9 183.7 21.9C183.7 11 176.1 6.19995 166 6.19995H146.2V57.2H159.5V37.6H159.6L172.1 57.2H188.6L172.5 36.3Z" fill="black"/>
<path fill-rule="evenodd" clip-rule="evenodd" d="M210 31.9999C215 31.9999 217.9 35.5999 217.9 39.7999C217.9 44.1999 215 47.5999 210 47.5999C205 47.5999 202.1 44.1999 202.1 39.7999C202.1 35.5999 205 31.9999 210 31.9999ZM229.8 22.4999H217.5V25.8999C214.9 22.8999 210.7 21.3999 206.7 21.3999C196.4 21.3999 189.3 29.8999 189.3 39.8999C189.3 49.7999 196.5 58.3999 206.8 58.3999C210.9 58.3999 215.1 56.7999 217.3 53.3999H217.4V57.2999H229.7V22.4999H229.8Z" fill="black"/>
<path fill-rule="evenodd" clip-rule="evenodd" d="M250.3 57.2H238V22.5H250.3V57.2ZM251 9.09995C251 12.9 247.9 16 244.1 16C240.3 16 237.2 12.9 237.2 9.09995C237.2 5.29995 240.3 2.19995 244.1 2.19995C247.9 2.19995 251 5.39995 251 9.09995Z" fill="black"/>
<path fill-rule="evenodd" clip-rule="evenodd" d="M271.9 57.1999H259.6V32.5999H255.3V22.4999H259.6V18.0999C259.6 13.2999 259.7 9.7999 263.1 5.8999C266.1 2.2999 270.5 0.399902 275.2 0.399902C277.1 0.399902 278.8 0.699899 280.5 1.5999V12.1999C279.1 11.5999 277.8 11.0999 276.2 11.0999C273 11.0999 271.9 12.9999 271.9 16.8999V22.4999H280.5V32.5999H271.9V57.1999Z" fill="black"/>
<path fill-rule="evenodd" clip-rule="evenodd" d="M298.1 57.1999H285.8V32.5999H281.5V22.4999H285.8V18.0999C285.8 13.2999 285.9 9.7999 289.3 5.8999C292.3 2.2999 296.7 0.399902 301.4 0.399902C303.3 0.399902 305 0.699899 306.7 1.5999V12.1999C305.3 11.5999 304 11.0999 302.4 11.0999C299.2 11.0999 298.1 12.9999 298.1 16.8999V22.4999H306.7V32.5999H298.1V57.1999Z" fill="black"/>
<path fill-rule="evenodd" clip-rule="evenodd" d="M320.8 34.7998C321.5 31.1998 324.5 29.2998 328.1 29.2998C331.4 29.2998 334.5 31.4998 335.1 34.7998H320.8ZM346.5 40.5998C346.5 28.7998 339.5 21.2998 327.5 21.2998C316.2 21.2998 308.3 28.2998 308.3 39.7998C308.3 51.7998 316.9 58.2998 328.4 58.2998C336.3 58.2998 344.1 54.5998 346 46.3998H334.2C332.8 48.6998 331 49.5998 328.3 49.5998C323.2 49.5998 320.6 46.8998 320.6 41.8998H346.5V40.5998Z" fill="black"/>
<path fill-rule="evenodd" clip-rule="evenodd" d="M364.4 57.2H352.1V22.5H364.4V57.2ZM365.2 9.09995C365.2 12.9 362.1 16 358.3 16C354.5 16 351.4 12.9 351.4 9.09995C351.4 5.29995 354.5 2.19995 358.3 2.19995C362.1 2.19995 365.2 5.39995 365.2 9.09995Z" fill="black"/>
<path fill-rule="evenodd" clip-rule="evenodd" d="M395.5 31.3998C393.6 30.3998 391 29.6998 388.9 29.6998C387.5 29.6998 385 30.2998 385 32.0998C385 34.4998 388.9 34.7998 390.5 35.0998C396.2 36.1998 400.6 38.9998 400.6 45.3998C400.6 54.4998 392.3 58.2998 384.2 58.2998C379.3 58.2998 374.4 56.8998 370.2 54.2998L374.7 45.6998C377.2 47.4998 381.4 49.1998 384.4 49.1998C386 49.1998 388.3 48.4998 388.3 46.5998C388.3 43.8998 384.4 43.7998 380.6 42.6998C376.8 41.5998 372.9 39.7998 372.9 33.5998C372.9 25.0998 380.6 21.2998 388.2 21.2998C392.1 21.2998 396 21.8998 399.6 23.4998L395.5 31.3998Z" fill="black"/>
<path fill-rule="evenodd" clip-rule="evenodd" d="M417.2 34.7998C417.9 31.1998 420.9 29.2998 424.5 29.2998C427.8 29.2998 430.9 31.4998 431.5 34.7998H417.2ZM442.9 40.5998C442.9 28.7998 435.9 21.2998 423.9 21.2998C412.6 21.2998 404.7 28.2998 404.7 39.7998C404.7 51.7998 413.3 58.2998 424.8 58.2998C432.7 58.2998 440.5 54.5998 442.5 46.3998H430.7C429.3 48.6998 427.5 49.5998 424.8 49.5998C419.7 49.5998 417.1 46.8998 417.1 41.8998H443V40.5998H442.9Z" fill="black"/>
<path fill-rule="evenodd" clip-rule="evenodd" d="M460.8 26.8998H460.9C463.7 22.6998 467.2 21.2998 472 21.2998C481.3 21.2998 485.1 27.1998 485.1 35.6998V57.0998H472.8V40.1998C472.8 36.8998 473.3 31.0998 467.2 31.0998C462.2 31.0998 460.8 34.7998 460.8 39.0998V57.0998H448.5V22.4998H460.8V26.8998Z" fill="black"/>
<path fill-rule="evenodd" clip-rule="evenodd" d="M163.1 109.7H164.5C168.8 109.7 175.5 109.1 174.5 115.3C173.6 120.9 167 120.7 163.1 120.7H161.4L163.1 109.7ZM167 130.8C176.3 130.8 186 127.3 187.7 116.6C188.8 109.5 186.5 104.5 179.3 103.6V103.5C183.8 101.4 185.8 97.6999 186.6 93.0999C188.1 83.2999 182.6 79.7999 173.5 79.7999H154.5L146.4 130.9H167V130.8ZM166.3 89.8999H167.2C170.8 89.8999 174.9 90.1999 174.1 94.7999C173.4 99.0999 169.7 99.6999 166.1 99.6999H164.6L166.3 89.8999Z" fill="black"/>
<path fill-rule="evenodd" clip-rule="evenodd" d="M223.1 111.8H212.1L220.2 95.5999H220.3L223.1 111.8ZM225.1 122L227 130.9H241.2L230 79.7999H215.5L187.8 130.9H201.9L206.8 122H225.1Z" fill="black"/>
<path fill-rule="evenodd" clip-rule="evenodd" d="M253.3 79.7999H266.6L286 111H286.1L291.1 79.7999H304.3L296.2 130.8H283L263.6 99.4999H263.5L258.5 130.8H245.3L253.3 79.7999Z" fill="black"/>
<path fill-rule="evenodd" clip-rule="evenodd" d="M342.5 79.7999H358.9L334.8 104L352.7 130.8H335.5L321.8 108.7H321.7L318.2 130.8H304.9L313 79.7999H326.3L322.9 100.8H323.1L342.5 79.7999Z" fill="black"/>

</svg>